<svg xmlns="http://www.w3.org/2000/svg" viewBox="0 0 32 32">
  <defs>
    <linearGradient id="bg" x1="0%" y1="0%" x2="100%" y2="100%">
      <stop offset="0%" stop-color="#4f46e5" />
      <stop offset="100%" stop-color="#0ea5e9" />
    </linearGradient>
  </defs>
  <rect x="0" y="0" width="32" height="32" rx="6" fill="url(#bg)" />
  <g transform="translate(4.5 4.5) scale(0.72)">
    <path
      fill="#ffffff"
      d="M27 21.75c-.795.004-1.538.229-2.169.616l.018-.01-2.694-2.449c.724-1.105 1.154-2.459 1.154-3.913 0-1.572-.503-3.027-1.358-4.212l.015.021 3.062-3.062c.57.316 1.249.503 1.971.508H27c2.347 0 4.25-1.903 4.25-4.25S29.347.75 27 .75 22.75 2.653 22.75 5c.005.724.193 1.403.519 1.995l-.011-.022-3.062 3.062c-1.147-.84-2.587-1.344-4.144-1.344-.868 0-1.699.157-2.467.443l.049-.016-.644-1.17c.726-.757 1.173-1.787 1.173-2.921 0-2.332-1.891-4.223-4.223-4.223S5.717 2.695 5.717 5.027 7.608 9.25 9.94 9.25c.306 0 .605-.033.893-.095l-.028.005.642 1.166c-1.685 1.315-2.758 3.345-2.758 5.627 0 .605.076 1.193.218 1.754l-.011-.049-.667.283c-.78-.904-1.927-1.474-3.207-1.474-2.334 0-4.226 1.892-4.226 4.226s1.892 4.226 4.226 4.226 4.226-1.892 4.226-4.226c0-.008 0-.017-.001-.025v.001c-.008-.159-.023-.307-.046-.451l.003.024.667-.283c1.303 2.026 3.547 3.349 6.1 3.349 1.703 0 3.268-.589 4.503-1.574l-.015.011 2.702 2.455c-.258.526-.41 1.144-.414 1.797V26c0 2.347 1.903 4.25 4.25 4.25s4.25-1.903 4.25-4.25-1.903-4.25-4.25-4.25zM8.19 5c0-.966.784-1.75 1.75-1.75s1.75.784 1.75 1.75-.784 1.75-1.75 1.75c-.966-.001-1.749-.784-1.75-1.75zM5 22.42c-.966-.001-1.748-.783-1.748-1.749S4.035 18.922 5.001 18.922 6.749 19.704 6.75 20.67c-.001.966-.784 1.749-1.75 1.75zM27 3.25c.966 0 1.75.784 1.75 1.75S27.966 6.75 27 6.75 25.25 5.966 25.25 5c.001-.966.784-1.749 1.75-1.75zm-15.81 12.75v-.003c0-2.655 2.152-4.807 4.807-4.807 1.328 0 2.53.539 3.4 1.409l.001.001.001.001c.87.87 1.407 2.072 1.407 3.399 0 2.656-2.153 4.808-4.808 4.808S11.19 18.655 11.19 16zm15.81 11.75c-.966 0-1.75-.784-1.75-1.75s.784-1.75 1.75-1.75 1.75.784 1.75 1.75c-.001.966-.784 1.749-1.75 1.75z"
    />
  </g>
</svg>
